<?xml version="1.0" encoding="utf-8" ?><svg xmlns="http://www.w3.org/2000/svg" xmlns:xlink="http://www.w3.org/1999/xlink" width="2432" height="1760" viewBox="0 0 2432 1760"><path fill="white" d="M813.806 394.97L1028.7 394.841L1127.37 394.755C1216.96 394.731 1301.86 398.476 1374.71 459.451C1426.5 502.803 1450.7 560.197 1456.19 626.462C1456.81 641.492 1457.05 652.649 1455.94 667.765C1455.09 689.414 1448.94 714.784 1442.12 735.287C1418.34 806.704 1359.77 857.826 1290.72 884.919C1295.18 889.138 1298.71 892.63 1302.85 897.151L1225.31 954.895C1212.34 964.572 1194.1 978.914 1180.71 987.316C1160.03 963.101 1140.07 937.024 1119.3 912.518L988.269 912.531L988.275 1129.32C971.21 1143 948.779 1158.4 930.805 1171.76L813.416 1258.81C815.182 1229.92 813.934 1191.09 813.865 1161.35L813.762 988.865L813.806 394.97ZM988.277 765.466L1094.32 765.655C1147.1 765.707 1202.21 770.586 1245.66 734.564C1269.94 711.551 1278.4 688.958 1279.58 655.72C1282.25 580.905 1219.67 546.46 1152.16 546.542C1118.31 546.583 1084.06 546.493 1050.15 546.606C1031.55 546.762 1006.21 545.81 988.473 547.039L988.277 765.466Z"/><path fill="#018AC9" d="M1546.24 755.638C1549.46 754.714 1551.36 754.131 1554.66 753.655C1555.87 755.363 1555.76 755.265 1555.93 757.372L1434.96 871.175C1406.59 897.898 1377.65 925.905 1348.92 952.092C1353.25 959.973 1370.3 978.893 1376.99 986.798L1436.19 1056.85L1558.62 1202.81C1575.06 1222.27 1599.16 1253.13 1616.28 1270.45C1593 1271.36 1567.14 1270.85 1543.7 1270.86L1422.6 1270.78C1397.17 1243.26 1367.52 1205.21 1342.65 1175.68L1279.15 1100.25C1266.53 1085.36 1251.82 1068.84 1239.81 1053.68C1224.92 1065.39 1207.73 1084.05 1193.11 1097.21C1148.5 1137.37 1105.39 1179.69 1061.58 1220.7C1054.96 1226.9 1018.52 1262.41 1013.87 1265.16C1010.57 1268.85 1009.76 1270.74 1004.61 1270.81C962.954 1271.33 921.247 1270.75 879.577 1270.78C870.143 1270.78 859.13 1271.34 849.933 1270.47L849.559 1269.63C858.93 1261.84 873.056 1252 883.051 1244.55C908.439 1225.62 933.962 1206.87 959.619 1188.3L1120.55 1069.2C1261.8 963.812 1403.7 859.289 1546.24 755.638Z"/><path fill="#1686BC" d="M849.559 1269.63C872.046 1268.69 890.106 1267.52 913.018 1267.43C909.338 1266.36 906.971 1267.11 905.181 1264.95C922.152 1263.53 999.704 1272.35 1008.38 1266.75C1009.82 1265.83 1010.49 1265.4 1012.25 1265.26C1012.79 1265.21 1013.33 1265.19 1013.87 1265.16C1010.57 1268.85 1009.76 1270.74 1004.61 1270.81C962.954 1271.33 921.247 1270.75 879.577 1270.78C870.143 1270.78 859.13 1271.34 849.933 1270.47L849.559 1269.63Z"/><path fill="#3C85A7" fill-opacity="0.61176473" d="M1584.66 725.569C1591.65 719.436 1610.04 705.425 1617.81 701.535C1609.45 712.124 1593.92 725.438 1583.51 734.933C1570.11 747.213 1556.83 759.632 1543.69 772.186L1352.05 952.275L1352.69 953.254C1358.32 961.749 1372.21 977.435 1379.14 985.65L1433.57 1049.65C1486.48 1111.74 1538.44 1175.59 1591.11 1237.99C1596.98 1244.95 1615.88 1264.89 1617.91 1271.81C1614.52 1272.95 1608.17 1273.23 1604.53 1273.16C1544.15 1271.97 1482.12 1275.07 1421.91 1273.28C1402.68 1252.86 1384.76 1228.4 1366.33 1207.18C1323.87 1158.25 1282.42 1105.01 1239.46 1056.83C1227.99 1066.68 1215.59 1079.28 1204.35 1089.74L1131.04 1157.98L1069.62 1216.38C1050.11 1234.69 1028.59 1254.22 1009.84 1273.09L898.207 1273.12C890.818 1273.12 851.077 1273.62 846.491 1272.12L845.885 1270.56C849.137 1266.18 872.569 1249.49 878.412 1245.14C909.567 1221.93 940.888 1198.95 972.373 1176.19L1206.57 1003.63L1424.46 842.015C1459.21 815.704 1494.34 789.89 1529.83 764.579C1543.67 754.564 1568.19 735.67 1582.12 727.148L1579.93 730.411C1573.65 735.557 1549.68 752.069 1546.24 755.638C1403.7 859.289 1261.8 963.812 1120.55 1069.2L959.619 1188.3C933.962 1206.87 908.439 1225.62 883.051 1244.55C873.056 1252 858.93 1261.84 849.559 1269.63L849.933 1270.47C859.13 1271.34 870.143 1270.78 879.577 1270.78C921.247 1270.75 962.954 1271.33 1004.61 1270.81C1009.76 1270.74 1010.57 1268.85 1013.87 1265.16C1018.52 1262.41 1054.96 1226.9 1061.58 1220.7C1105.39 1179.69 1148.5 1137.37 1193.11 1097.21C1207.73 1084.05 1224.92 1065.39 1239.81 1053.68C1251.82 1068.84 1266.53 1085.36 1279.15 1100.25L1342.65 1175.68C1367.52 1205.21 1397.17 1243.26 1422.6 1270.78L1543.7 1270.86C1567.14 1270.85 1593 1271.36 1616.28 1270.45C1599.16 1253.13 1575.06 1222.27 1558.62 1202.81L1436.19 1056.85L1376.99 986.798C1370.3 978.893 1353.25 959.973 1348.92 952.092C1377.65 925.905 1406.59 897.898 1434.96 871.175L1555.93 757.372C1561.08 753.478 1576.12 738.883 1581.57 733.878C1583.38 733.15 1590.03 726.816 1591.16 724.198C1588.78 723.163 1588.01 724.256 1584.66 725.569Z"/><path fill="#1686BC" fill-opacity="0.96470588" d="M1579.93 730.411L1581.57 733.878C1576.12 738.883 1561.08 753.478 1555.93 757.372C1555.76 755.265 1555.87 755.363 1554.66 753.655C1551.36 754.131 1549.46 754.714 1546.24 755.638C1549.68 752.069 1573.65 735.557 1579.93 730.411Z"/><path fill="#FBFBFA" fill-opacity="0.011764706" d="M1456.19 626.462C1462.68 634.078 1461.39 640.023 1461.74 649.81C1461.89 653.871 1460.76 662.46 1458.91 665.918L1455.94 667.765C1457.05 652.649 1456.81 641.492 1456.19 626.462Z"/><path fill="#1686BC" fill-opacity="0.81176472" d="M1584.66 725.569C1588.01 724.256 1588.78 723.163 1591.16 724.198C1590.03 726.816 1583.38 733.15 1581.57 733.878L1579.93 730.411L1582.12 727.148L1584.66 725.569Z"/></svg>