<?xml version="1.0" encoding="utf-8" ?><svg xmlns="http://www.w3.org/2000/svg" xmlns:xlink="http://www.w3.org/1999/xlink" width="1184" height="864" viewBox="0 0 1184 864"><path fill="#F1E9E9" transform="scale(0.843906 0.84375)" d="M569.331 286.478L641.242 286.374C678.894 286.29 727.252 281.845 757.866 307.656C800.959 343.987 796.212 416.964 749.379 448.007C745.36 450.67 731.906 456.706 729.872 459.113C730.411 460.18 730.971 461.236 731.554 462.28C730.683 465.097 696.469 487.798 691.333 491.32L685.174 483.494L670.947 465.001C657.765 464.295 639.267 464.698 625.89 465.013L625.829 536.248C608.063 549.454 587.669 565.671 569.298 577.455L569.331 286.478ZM625.618 413.312L664.688 413.42C683.494 413.465 700.782 415.243 717.278 404.415C738.943 383.718 731.356 346.117 702.321 339.848C680.899 335.224 652.032 338.061 629.794 337.46C627.96 337.716 626.553 337.536 625.578 338.669C624.064 359.599 625.764 391.345 625.618 413.312Z"/><path fill="#116FB1" transform="scale(0.843906 0.84375)" d="M827.33 407.874L827.509 407.968L827.467 408.748C801.438 430.63 773.913 456.622 747.889 479.391C775.639 511.053 803.274 544.37 830.58 576.537L763.691 576.589C758.403 571.57 749.748 560.852 744.767 555.036L709.508 514.028C703.821 519.467 696.389 525.673 690.365 530.959L639.85 576.512L588.077 576.567C595.378 571.797 604.759 564.526 612.035 559.287L661.934 523.497C716.74 484.489 771.873 445.947 827.33 407.874Z"/><path fill="#F1E9E9" transform="scale(0.843906 0.84375)" d="M545.534 634.639C558.183 634.405 575.232 633.201 587.376 635.62C607.08 639.545 605.458 667.809 596.706 680.623C585.301 689.444 560.135 686.952 545.547 686.77C544.984 670.21 545.445 651.284 545.534 634.639ZM556.413 676.706C565.076 676.938 581.394 678.351 588.171 673.429C594.022 662.165 594.602 646.351 578.274 644.423C571.284 643.598 563.54 644.175 556.473 644.399C556.422 655.078 556.236 666.053 556.413 676.706Z"/><path fill="#116FB1" transform="scale(0.843906 0.84375)" d="M956.597 634.343C974.839 634.24 1010.34 629.236 994.568 659.551C1000.41 667.904 1003.61 680.695 991.473 685.304C979.383 688.277 957.025 686.991 944.045 686.821L943.927 634.444L956.597 634.343ZM955.585 677.274C964.412 677.28 973.507 677.402 982.31 677.225C985.303 676.433 985.462 676.908 987.297 674.824C991.152 661.131 971.05 664.256 962.773 664.469C959.263 664.621 958.466 664.085 955.828 665.775C954.411 668.539 955.45 673.816 955.585 677.274ZM955.218 644.197C955.315 648.034 955.349 651.873 955.321 655.712L969.885 655.752C975.933 655.718 985.784 656.705 987.791 649.54C985.572 643.307 976.356 643.916 970.99 643.931L955.218 644.197Z"/><path fill="#F1E9E9" transform="scale(0.843906 0.84375)" d="M371.527 634.362C376.452 634.15 383.321 633.879 387.832 635.706C403.931 642.228 403.07 661.991 387.947 668.909C392.573 674.926 396.829 680.346 400.894 686.752C396.843 686.919 392.567 686.809 388.497 686.773C384.742 683.007 381.746 678.466 378.661 674.118C378.292 673.453 376.922 671.055 376.459 670.808C372.456 668.671 359.82 669.652 355.362 669.736L355.42 686.756L343.991 686.763L344.005 634.625C353.18 634.741 362.357 634.654 371.527 634.362ZM355.476 660.452C366.371 660.601 375.362 661.257 386.128 659.006C390.083 642.792 380.083 643.789 367.585 643.985C363.55 644.047 359.438 644.267 355.402 644.28L355.476 660.452Z"/><path fill="#F1E9E9" transform="scale(0.843906 0.84375)" d="M699.837 634.359C704.366 634.191 706.838 634.303 711.371 634.7C717.979 644.823 732.643 675.028 738.213 686.748L725.578 686.757L720.525 675.969L707.695 675.809L687.754 675.813C686.183 679.617 684.147 683.121 682.157 686.718L670.148 686.613C670.604 685.543 671.085 684.484 671.593 683.437C675.111 676.229 694.522 636.201 699.837 634.359ZM693.153 666.216L706.466 666.255L715.369 666.293C713.2 661.673 706.961 647.55 704.026 644.731C700.16 651.768 696.533 658.933 693.153 666.216Z"/><path fill="#116FB1" transform="scale(0.843906 0.84375)" d="M898.819 634.584C903.216 634.38 907.935 634.58 912.361 634.68C921.378 650.114 931.118 670.646 939.534 686.856L927.17 686.927L921.547 675.827L912.841 675.814L889.032 675.778L883.721 686.767L871.654 686.733C876.734 674.987 892.631 644.439 898.819 634.584ZM894.021 666.343L907.361 666.37L917.402 666.49C914.421 661.677 908.125 646.85 905.323 644.628C901.467 651.82 897.7 659.059 894.021 666.343Z"/><path fill="#F1E9E9" transform="scale(0.843906 0.84375)" d="M472.074 634.841C484.33 633.902 501.322 634.389 513.782 634.67L513.731 644.186C502.587 644.186 490.766 643.979 479.609 644.507C475.978 644.679 474.263 648.634 474.953 652.045C482.335 660.153 526.063 644.949 515.89 678.911C514.622 683.143 509.117 685.374 505.312 686.683C491.67 686.912 478.025 686.942 464.381 686.771L464.244 677.038C475.34 677.024 491.389 678.074 502.249 675.842C505.299 675.217 506.156 671.083 504.854 668.06C496.19 658.733 457.022 677.1 464.181 643.698C465.218 638.861 468.182 637.159 472.074 634.841Z"/><path fill="#116FB1" transform="scale(0.843906 0.84375)" d="M1027.73 634.338C1037.07 634.349 1046.42 634.438 1055.76 634.607L1055.67 644.201C1049.3 644.204 1022.02 643.368 1018.21 645.382C1016.55 647.401 1016.21 647.593 1015.66 650.05C1018.57 659.852 1047.5 650.891 1055.57 660.741C1057.98 663.143 1059.61 666.327 1059.34 669.983C1058.08 687.016 1048.96 686.925 1035.91 686.837L1005.94 686.814L1005.76 677.064C1012.94 677.054 1020.11 677.084 1027.29 677.16C1033.7 677.289 1046.61 679.08 1048.26 670.414C1042.65 656.958 1006.19 676.696 1005.53 652.001C1005.05 634.146 1013.1 634.449 1027.73 634.338Z"/><path fill="#F1E9E9" transform="scale(0.843906 0.84375)" d="M417.851 634.808C430.335 634.121 444.366 634.479 456.917 634.676L456.871 644.27C451.175 644.143 409.823 640.423 418.536 654.511C425.085 656.844 448.293 655.621 456.47 655.367L456.39 664.849L421.139 664.818C420.74 664.853 419.358 665.263 418.884 665.39C409.235 680.986 452.094 677.015 457.773 676.799L457.562 686.766C445.583 686.867 428.511 687.847 417.295 685.587C403.161 682.74 405.065 655.887 407.683 645.792C409.19 639.981 412.621 637.298 417.851 634.808Z"/><path fill="#F1E9E9" transform="scale(0.843906 0.84375)" d="M611.305 634.643C622.899 633.941 621.966 634.882 621.954 645.758C621.947 651.494 620.104 668.782 623.812 672.769C628.882 678.217 649.888 679.137 655.571 672.99C658.506 669.727 657.846 658.299 658.116 653.703C658.192 647.477 657.981 640.744 657.862 634.596L668.611 634.522L668.693 643.424C668.694 653.18 671.646 677.242 662.292 683.046C652.414 689.175 620.412 689.892 613.514 678.721C609.011 671.431 609.535 643.496 611.305 634.643Z"/><path fill="#116FB1" transform="scale(0.843906 0.84375)" d="M830.895 634.436C833.177 643.212 825.176 676.443 839.262 676.821C847.882 677.052 860.321 676.686 869.289 676.617L869.251 686.75L858.036 686.78C810.44 687.083 819.158 678.396 819.685 634.466C823.358 634.383 827.205 634.439 830.895 634.436Z"/><path fill="#F1E9E9" transform="scale(0.843906 0.84375)" d="M744.376 634.315L753.439 634.473C753.907 678.197 743.116 676.788 790.715 676.446C790.766 679.681 790.991 683.167 790.351 686.314L789.26 686.747C751.856 686.974 737.971 693.421 741.848 647.708C742.182 643.771 741.442 638.619 742.73 634.81L744.376 634.315Z"/><path fill="#F1E9E9" transform="scale(0.843906 0.84375)" d="M524.952 634.694L536.31 634.62C536.346 650.393 536.972 671.356 535.97 686.574C532.821 686.822 528.189 686.748 524.92 686.795C525.061 669.428 525.072 652.06 524.952 634.694Z"/></svg>